<?xml version="1.0" standalone="no"?>
<!DOCTYPE svg PUBLIC "-//W3C//DTD SVG 20010904//EN"
 "http://www.w3.org/TR/2001/REC-SVG-20010904/DTD/svg10.dtd">
<svg version="1.0" xmlns="http://www.w3.org/2000/svg"
 width="700.000000pt" height="700.000000pt" viewBox="0 0 700.000000 700.000000"
 preserveAspectRatio="xMidYMid meet">
<metadata>
Created by potrace 1.11, written by Peter Selinger 2001-2013
</metadata>
<g transform="translate(0.000000,700.000000) scale(0.100000,-0.100000)"
fill="#000000" stroke="none">
<path d="M784 4996 c-2 -6 -3 -270 -2 -586 l3 -574 83 -1 82 0 0 273 0 272
104 0 104 0 -1 63 -2 62 -102 0 -103 -1 0 188 0 188 53 1 c28 0 94 0 145 -1
l92 -1 0 64 0 64 -226 0 c-158 0 -227 -3 -230 -11z"/>
<path d="M2967 4996 c-1 -6 -3 -98 -2 -203 0 -106 -2 -193 -6 -193 -3 0 -14 9
-25 21 -32 36 -93 61 -146 61 -86 -1 -141 -50 -174 -156 -20 -62 -29 -374 -13
-451 6 -27 13 -61 15 -75 8 -40 57 -122 85 -142 61 -45 142 -41 216 11 24 17
45 31 47 31 2 0 2 -11 1 -25 -4 -34 8 -39 93 -40 57 0 72 3 73 15 1 19 1 1096
0 1131 -1 26 -1 26 -81 26 -46 -1 -81 -5 -83 -11z m-32 -471 l30 -12 0 -264 0
-264 -55 -12 c-30 -7 -64 -10 -75 -8 -11 2 -23 4 -27 4 -15 2 -38 61 -45 113
-4 29 -6 125 -6 213 1 175 12 228 55 244 27 10 81 4 123 -14z"/>
<path d="M4380 4960 c-5 -3 -9 -40 -9 -83 l0 -77 30 -1 c16 0 49 -1 74 -1 25
0 50 1 55 1 6 1 10 36 10 84 l0 82 -75 0 c-42 1 -80 -2 -85 -5z"/>
<path d="M2287 4679 c-48 -11 -107 -41 -131 -68 -26 -29 -34 -26 -32 9 3 42
-7 53 -48 53 -20 -1 -55 -2 -79 -2 l-42 -1 0 -415 c-1 -278 3 -415 10 -416 15
-1 128 -2 145 0 13 1 15 45 15 333 l0 332 30 17 c42 24 87 29 111 12 18 -13
19 -32 24 -356 l5 -342 70 1 c39 1 75 2 81 3 9 1 12 101 10 379 l-1 377 -23
33 c-37 51 -77 65 -145 51z"/>
<path d="M3598 4676 c-26 -7 -55 -19 -65 -27 -29 -23 -63 -61 -63 -70 0 -5 -3
-9 -8 -9 -4 0 -7 23 -6 50 1 51 0 52 -46 52 -11 0 -42 0 -70 -1 l-50 -1 0
-417 0 -418 63 1 c34 1 71 2 83 3 20 1 20 5 20 290 0 309 4 336 51 366 26 17
80 22 129 11 l30 -7 -1 85 c0 47 -4 89 -10 94 -6 6 -27 5 -57 -2z"/>
<path d="M3926 4683 c-2 -2 -16 -6 -30 -9 -38 -7 -100 -48 -125 -82 -27 -38
-39 -71 -47 -127 l-6 -46 83 3 84 3 6 37 c8 51 34 86 66 90 65 8 90 -26 95
-126 2 -44 -1 -61 -12 -66 -8 -5 -58 -29 -110 -54 -53 -25 -111 -61 -128 -79
-74 -77 -102 -229 -56 -307 25 -42 84 -90 115 -93 62 -5 107 13 143 55 20 23
36 48 36 55 0 20 20 16 21 -4 0 -16 4 -38 11 -75 5 -21 13 -23 90 -23 l73 1
-2 35 c-2 19 -5 156 -8 304 -2 149 -7 287 -10 308 -12 85 -81 167 -155 187
-38 10 -128 19 -134 13z m128 -554 l2 -111 -33 -29 c-38 -33 -38 -33 -82 -18
-50 18 -66 84 -37 154 14 33 132 132 144 120 3 -2 6 -55 6 -116z"/>
<path d="M4849 4675 c-120 -24 -184 -104 -178 -223 2 -42 26 -99 54 -128 11
-12 191 -151 225 -174 49 -34 66 -118 31 -161 -13 -17 -29 -23 -59 -23 -48 0
-82 26 -113 86 l-19 37 -60 -22 c-33 -12 -60 -26 -60 -32 0 -5 11 -32 24 -60
48 -102 136 -156 245 -149 138 10 216 75 228 190 12 116 -35 189 -200 310 -95
71 -118 94 -128 130 -9 31 24 84 53 86 70 4 94 -9 135 -79 l24 -41 59 20 c33
11 60 24 60 30 0 21 -52 117 -78 143 -56 58 -146 80 -243 60z"/>
<path d="M5431 4670 c-128 -41 -168 -135 -168 -402 -1 -230 26 -333 104 -397
90 -75 265 -55 340 39 19 23 50 130 51 178 l2 42 -83 0 -84 0 -2 -51 c-1 -28
-8 -63 -16 -79 -28 -54 -105 -46 -130 14 -12 28 -21 158 -16 226 1 13 26 15
167 14 l167 0 -6 95 c-8 121 -14 156 -37 206 -23 48 -36 64 -75 92 -55 38
-139 47 -214 23z m116 -135 c12 -9 27 -32 33 -53 13 -47 13 -139 0 -144 -5 -1
-42 -2 -83 0 l-73 3 7 75 c8 82 26 120 61 127 13 2 25 5 28 6 3 0 15 -6 27
-14z"/>
<path d="M6200 4680 c-47 -13 -88 -39 -119 -77 l-31 -38 0 55 0 55 -74 -2
c-41 0 -80 -4 -85 -7 -7 -5 -10 -145 -8 -419 l2 -412 80 0 80 1 5 304 c5 331
7 338 63 361 31 13 71 14 118 4 l29 -7 0 90 c0 98 -6 107 -60 92z"/>
<path d="M1358 4672 c-37 -2 -48 -7 -48 -20 0 -9 0 -178 0 -375 0 -379 2 -388
48 -430 26 -24 114 -26 165 -4 21 9 56 31 78 48 39 30 47 27 40 -15 -1 -4 1
-16 4 -25 4 -13 18 -16 82 -15 l78 0 3 417 c1 276 -1 417 -8 418 -5 0 -26 1
-45 1 -19 0 -53 -1 -74 -1 l-39 -1 0 -302 c0 -167 -1 -316 -1 -333 -2 -58
-110 -105 -148 -63 -16 18 -18 46 -19 351 -1 183 -2 337 -3 342 -1 10 -32 12
-113 7z"/>
<path d="M4403 4672 l-31 -3 1 -417 2 -416 83 -1 82 0 -2 419 -3 419 -50 1
c-27 0 -64 0 -82 -2z"/>
<path d="M1003 3464 c-73 -15 -92 -24 -144 -71 -46 -42 -75 -100 -94 -187 -19
-92 -19 -671 1 -757 43 -188 142 -269 328 -271 195 -2 295 73 343 255 13 50
16 121 17 357 2 362 -5 434 -50 524 -29 58 -67 97 -121 125 -69 35 -182 45
-280 25z m193 -160 c68 -37 69 -45 71 -469 2 -374 2 -381 -20 -425 -13 -26
-36 -52 -55 -63 -43 -25 -138 -26 -179 -2 -73 43 -80 87 -78 505 1 327 2 347
22 392 21 46 42 64 92 78 41 11 110 4 147 -16z"/>
<path d="M5175 3473 c-68 -11 -127 -28 -136 -40 -6 -7 -17 -13 -24 -13 -17 0
-80 -71 -103 -117 -49 -97 -54 -137 -58 -448 -3 -292 6 -382 47 -488 25 -66
85 -132 144 -158 44 -19 152 -40 182 -34 10 2 31 7 47 10 34 7 92 64 111 107
14 35 17 32 39 -44 l17 -58 69 0 70 0 0 318 0 317 -173 -1 c-94 -1 -176 -2
-182 -3 -6 0 -10 -29 -9 -63 l1 -63 92 -3 92 -3 -5 -88 c-5 -92 -18 -157 -42
-203 -36 -69 -159 -94 -229 -47 -19 13 -35 29 -35 35 0 6 -6 17 -14 23 -8 7
-17 28 -22 49 -4 20 -9 44 -11 52 -8 28 -9 549 -2 618 14 127 67 190 168 196
126 8 173 -57 180 -250 1 -20 6 -21 92 -21 l90 0 -5 71 c-16 223 -120 338
-316 349 -30 2 -64 2 -75 0z"/>
<path d="M2523 3462 c-21 -3 -22 -8 -22 -83 l1 -79 114 0 114 0 0 -554 0 -555
90 -3 90 -3 1 25 c0 14 1 265 1 558 l0 532 115 0 114 0 -3 82 -3 82 -295 1
c-162 0 -305 -1 -317 -3z"/>
<path d="M3231 3460 c-4 -3 -8 -290 -8 -637 l-1 -633 24 -1 c13 0 54 -1 92 -1
l67 -1 1 354 c1 195 2 359 3 366 1 6 21 21 46 33 56 27 105 24 121 -8 8 -16
11 -133 12 -380 l0 -357 91 -3 91 -3 0 398 c-1 219 -4 411 -7 427 -3 15 -22
44 -41 63 -34 35 -36 35 -101 31 -70 -5 -114 -23 -171 -69 -19 -16 -37 -29
-40 -29 -3 0 -5 101 -4 225 1 124 -2 225 -5 226 -27 4 -164 3 -170 -1z"/>
<path d="M1926 3094 c-22 -8 -60 -30 -85 -50 l-46 -35 -3 46 -3 46 -92 -3 -91
-3 -1 -453 0 -452 92 0 93 0 2 361 3 362 26 20 c15 10 47 21 71 24 79 9 78 15
78 -404 l0 -363 50 -1 c64 -1 118 -1 128 0 8 1 8 771 -1 813 -8 38 -23 64 -53
87 -32 25 -108 27 -168 5z"/>
<path d="M4090 3097 c-19 -6 -55 -32 -80 -57 -70 -70 -93 -163 -93 -390 -1
-225 28 -344 100 -412 82 -79 257 -82 351 -7 43 34 81 123 88 207 l6 70 -91
-1 -91 -1 -1 -35 c-1 -20 -1 -39 0 -43 0 -4 -6 -25 -15 -47 -16 -42 -45 -60
-83 -54 -59 9 -80 64 -84 216 -2 91 -1 97 18 98 11 0 94 1 184 1 l164 1 -6
116 c-3 64 -13 139 -22 168 -20 67 -70 133 -120 158 -47 23 -171 30 -225 12z
m140 -147 c11 -6 26 -32 33 -58 16 -53 22 -151 10 -153 -4 -1 -45 -2 -90 -3
-91 -2 -87 -5 -84 69 6 124 59 183 131 145z"/>
<path d="M5863 3094 c-78 -29 -134 -109 -151 -216 -15 -100 -8 -455 11 -518
32 -107 87 -160 184 -178 141 -25 260 24 305 126 31 68 31 75 35 314 5 254 -5
320 -55 393 -44 63 -100 89 -202 92 -58 2 -98 -2 -127 -13z m166 -151 c34 -28
39 -67 40 -294 1 -229 -6 -277 -44 -307 -37 -29 -93 -17 -118 27 -18 30 -20
53 -20 270 0 204 2 241 17 273 10 20 25 39 34 41 37 10 71 6 91 -10z"/>
<path d="M2247 2642 c-14 -3 -17 -15 -17 -68 0 -35 3 -64 8 -65 34 -4 262 -3
263 1 5 58 3 123 -5 128 -11 6 -218 10 -249 4z"/>
<path d="M4526 2642 c-14 -3 -16 -14 -14 -70 l3 -66 128 0 c76 -1 132 3 135 9
11 17 8 125 -3 126 -27 3 -234 4 -249 1z"/>
</g>
</svg>
